<svg xmlns="http://www.w3.org/2000/svg" width="1108.232" height="967.511" viewBox="0 0 1108.232 967.511">
  <g id="Group_279" data-name="Group 279" transform="matrix(-0.839, 0.545, -0.545, -0.839, 18892.561, -2916.938)">
    <path id="Path_107" data-name="Path 107" d="M17699.324,6889.411s31.594,122.78,17.688,169.963-63.7,52.162-78.664,54.164-92.6-23.9-109.068-101.312,32.164-78.843,32.164-78.843,22.178-1.828,29.561,35.746,10.711,96.792,3.514,123.895-40.82,68.13-88.568,28.884-65.227-68.754-66.77-89.4,8.094-27.587,10.768-28.925,20.162-10.246,35.166,17.913,15.652,65.159,15.734,68.263,4.57,36.833-19.719,58.2-35.273,29.9-67.148,25.869-57.707-48.655-65.113-95.794,10.164-57.7,10.164-57.7,17.23-12.226,30.332,4.658,19.184,30.069,20.705,68.261,8.072,73.014-24.721,91.074-62.309,29.923-107.086-6.435-59.66-65.622-96.676-80.994-88.494-10.773-112.666,0-47.221,35.523-52.322,43.706-22.051,42.06-18.258,67.124,9.527,43.5,24.742,56.4,48.877,21.289,61.93,7.832,5.623-36.507,3.551-38.9-.084-23.5-53.8-41.712-80.652-16.3-80.652-16.3-81.949-7.159-126.852,28.075-54.062,55.683-58.26,61.408-21.783,35.459-22.592,64.451,0,54.554,0,54.554" transform="translate(-1.222)" fill="none" stroke="#c3fea8" stroke-linecap="round" stroke-width="15"/>
    <path id="Path_108" data-name="Path 108" d="M0,0,40.865,2.2" transform="translate(16726.033 7356.569) rotate(-3)" fill="none" stroke="#c3fea8" stroke-linecap="round" stroke-width="15"/>
  </g>
</svg>
